<svg width="512" height="512" viewBox="0 0 512 512" fill="none" xmlns="http://www.w3.org/2000/svg">
<g clip-path="url(#clip0_174_20963)">
<g filter="url(#filter0_dd_174_20963)">
<path d="M2.1 206.8C2.1 170.955 2.10008 144.077 3.84356 122.738C5.58695 101.4 9.07306 85.6085 16.0403 71.9346C28.3025 47.8687 47.8687 28.3025 71.9346 16.0403C85.6085 9.07306 101.4 5.58695 122.738 3.84356C144.077 2.10008 170.955 2.1 206.8 2.1H305.2C341.045 2.1 367.923 2.10008 389.262 3.84356C410.6 5.58695 426.391 9.07306 440.065 16.0403C464.131 28.3025 483.698 47.8687 495.96 71.9346C502.927 85.6085 506.413 101.4 508.156 122.738C509.9 144.077 509.9 170.955 509.9 206.8V305.2C509.9 341.045 509.9 367.923 508.156 389.262C506.413 410.6 502.927 426.391 495.96 440.065C483.698 464.131 464.131 483.698 440.065 495.96C426.391 502.927 410.6 506.413 389.262 508.156C367.923 509.9 341.045 509.9 305.2 509.9H206.8C170.955 509.9 144.077 509.9 122.738 508.156C101.4 506.413 85.6085 502.927 71.9346 495.96C47.8687 483.698 28.3025 464.131 16.0403 440.065C9.07306 426.391 5.58695 410.6 3.84356 389.262C2.10008 367.923 2.1 341.045 2.1 305.2V206.8Z" fill="white"/>
<path d="M2.1 206.8C2.1 170.955 2.10008 144.077 3.84356 122.738C5.58695 101.4 9.07306 85.6085 16.0403 71.9346C28.3025 47.8687 47.8687 28.3025 71.9346 16.0403C85.6085 9.07306 101.4 5.58695 122.738 3.84356C144.077 2.10008 170.955 2.1 206.8 2.1H305.2C341.045 2.1 367.923 2.10008 389.262 3.84356C410.6 5.58695 426.391 9.07306 440.065 16.0403C464.131 28.3025 483.698 47.8687 495.96 71.9346C502.927 85.6085 506.413 101.4 508.156 122.738C509.9 144.077 509.9 170.955 509.9 206.8V305.2C509.9 341.045 509.9 367.923 508.156 389.262C506.413 410.6 502.927 426.391 495.96 440.065C483.698 464.131 464.131 483.698 440.065 495.96C426.391 502.927 410.6 506.413 389.262 508.156C367.923 509.9 341.045 509.9 305.2 509.9H206.8C170.955 509.9 144.077 509.9 122.738 508.156C101.4 506.413 85.6085 502.927 71.9346 495.96C47.8687 483.698 28.3025 464.131 16.0403 440.065C9.07306 426.391 5.58695 410.6 3.84356 389.262C2.10008 367.923 2.1 341.045 2.1 305.2V206.8Z" fill="url(#paint0_linear_174_20963)"/>
<path d="M430.25 263.938C430.25 361.264 351.943 439.631 256 439.631C160.057 439.631 81.75 361.264 81.75 263.938C81.75 166.611 160.057 88.2443 256 88.2443C351.943 88.2443 430.25 166.611 430.25 263.938Z" stroke="#155EEF" stroke-width="96"/>
<g filter="url(#filter1_b_174_20963)">
<path d="M2 256H510V497.2C510 501.68 510 503.921 509.128 505.632C508.361 507.137 507.137 508.361 505.632 509.128C503.921 510 501.68 510 497.2 510H14.8C10.3196 510 8.07937 510 6.36808 509.128C4.86278 508.361 3.63893 507.137 2.87195 505.632C2 503.921 2 501.68 2 497.2V256Z" fill="white" fill-opacity="0.2"/>
</g>
<path d="M2.1 206.8C2.1 170.955 2.10008 144.077 3.84356 122.738C5.58695 101.4 9.07306 85.6085 16.0403 71.9346C28.3025 47.8687 47.8687 28.3025 71.9346 16.0403C85.6085 9.07306 101.4 5.58695 122.738 3.84356C144.077 2.10008 170.955 2.1 206.8 2.1H305.2C341.045 2.1 367.923 2.10008 389.262 3.84356C410.6 5.58695 426.391 9.07306 440.065 16.0403C464.131 28.3025 483.698 47.8687 495.96 71.9346C502.927 85.6085 506.413 101.4 508.156 122.738C509.9 144.077 509.9 170.955 509.9 206.8V305.2C509.9 341.045 509.9 367.923 508.156 389.262C506.413 410.6 502.927 426.391 495.96 440.065C483.698 464.131 464.131 483.698 440.065 495.96C426.391 502.927 410.6 506.413 389.262 508.156C367.923 509.9 341.045 509.9 305.2 509.9H206.8C170.955 509.9 144.077 509.9 122.738 508.156C101.4 506.413 85.6085 502.927 71.9346 495.96C47.8687 483.698 28.3025 464.131 16.0403 440.065C9.07306 426.391 5.58695 410.6 3.84356 389.262C2.10008 367.923 2.1 341.045 2.1 305.2V206.8Z" stroke="#D0D5DD" stroke-width="0.2"/>
</g>
</g>
<defs>
<filter id="filter0_dd_174_20963" x="-1" y="0" width="514" height="514" filterUnits="userSpaceOnUse" color-interpolation-filters="sRGB">
<feFlood flood-opacity="0" result="BackgroundImageFix"/>
<feColorMatrix in="SourceAlpha" type="matrix" values="0 0 0 0 0 0 0 0 0 0 0 0 0 0 0 0 0 0 127 0" result="hardAlpha"/>
<feOffset dy="1"/>
<feGaussianBlur stdDeviation="1"/>
<feColorMatrix type="matrix" values="0 0 0 0 0.0627451 0 0 0 0 0.0941176 0 0 0 0 0.156863 0 0 0 0.06 0"/>
<feBlend mode="normal" in2="BackgroundImageFix" result="effect1_dropShadow_174_20963"/>
<feColorMatrix in="SourceAlpha" type="matrix" values="0 0 0 0 0 0 0 0 0 0 0 0 0 0 0 0 0 0 127 0" result="hardAlpha"/>
<feOffset dy="1"/>
<feGaussianBlur stdDeviation="1.5"/>
<feColorMatrix type="matrix" values="0 0 0 0 0.0627451 0 0 0 0 0.0941176 0 0 0 0 0.156863 0 0 0 0.1 0"/>
<feBlend mode="normal" in2="effect1_dropShadow_174_20963" result="effect2_dropShadow_174_20963"/>
<feBlend mode="normal" in="SourceGraphic" in2="effect2_dropShadow_174_20963" result="shape"/>
</filter>
<filter id="filter1_b_174_20963" x="-62" y="192" width="636" height="382" filterUnits="userSpaceOnUse" color-interpolation-filters="sRGB">
<feFlood flood-opacity="0" result="BackgroundImageFix"/>
<feGaussianBlur in="BackgroundImageFix" stdDeviation="32"/>
<feComposite in2="SourceAlpha" operator="in" result="effect1_backgroundBlur_174_20963"/>
<feBlend mode="normal" in="SourceGraphic" in2="effect1_backgroundBlur_174_20963" result="shape"/>
</filter>
<linearGradient id="paint0_linear_174_20963" x1="256" y1="2" x2="256" y2="510" gradientUnits="userSpaceOnUse">
<stop stop-color="white"/>
<stop offset="1" stop-color="#D0D5DD"/>
</linearGradient>
<clipPath id="clip0_174_20963">
<rect width="512" height="512" fill="white"/>
</clipPath>
</defs>
</svg>
